<svg width="55" height="55" viewBox="0 0 55 55" fill="none" xmlns="http://www.w3.org/2000/svg">
<path d="M35.5209 32.0834H33.7104L33.0688 31.4646C35.8188 28.2563 37.2396 23.8792 36.4604 19.2271C35.3834 12.8563 30.0667 7.76878 23.65 6.98961C13.9563 5.79795 5.79795 13.9563 6.98961 23.65C7.76878 30.0667 12.8563 35.3834 19.2271 36.4604C23.8792 37.2396 28.2563 35.8188 31.4646 33.0688L32.0834 33.7104V35.5209L41.8229 45.2604C42.7625 46.2 44.2979 46.2 45.2375 45.2604C46.1771 44.3209 46.1771 42.7854 45.2375 41.8459L35.5209 32.0834ZM21.7709 32.0834C16.0646 32.0834 11.4584 27.4771 11.4584 21.7709C11.4584 16.0646 16.0646 11.4584 21.7709 11.4584C27.4771 11.4584 32.0834 16.0646 32.0834 21.7709C32.0834 27.4771 27.4771 32.0834 21.7709 32.0834Z" fill="#D9D9D9"/>
</svg>
