<svg width="55" height="55" viewBox="0 0 55 55" fill="none" xmlns="http://www.w3.org/2000/svg">
<path d="M43.8625 29.6542C43.9542 28.9667 44 28.2562 44 27.5C44 26.7667 43.9542 26.0333 43.8396 25.3458L48.4917 21.725C48.9042 21.4042 49.0187 20.7854 48.7667 20.3271L44.3667 12.7187C44.0917 12.2146 43.5187 12.0542 43.0146 12.2146L37.5375 14.4146C36.3917 13.5437 35.1771 12.8104 33.825 12.2604L33 6.43958C32.9083 5.88958 32.45 5.49999 31.9 5.49999H23.1C22.55 5.49999 22.1146 5.88958 22.0229 6.43958L21.1979 12.2604C19.8458 12.8104 18.6083 13.5667 17.4854 14.4146L12.0083 12.2146C11.5042 12.0312 10.9312 12.2146 10.6562 12.7187L6.27915 20.3271C6.00415 20.8083 6.09582 21.4042 6.55415 21.725L11.2062 25.3458C11.0917 26.0333 11 26.7896 11 27.5C11 28.2104 11.0458 28.9667 11.1604 29.6542L6.50832 33.275C6.09582 33.5958 5.98124 34.2146 6.23332 34.6729L10.6333 42.2812C10.9083 42.7854 11.4812 42.9458 11.9854 42.7854L17.4625 40.5854C18.6083 41.4562 19.8229 42.1896 21.175 42.7396L22 48.5604C22.1146 49.1104 22.55 49.5 23.1 49.5H31.9C32.45 49.5 32.9083 49.1104 32.9771 48.5604L33.8021 42.7396C35.1542 42.1896 36.3917 41.4562 37.5146 40.5854L42.9917 42.7854C43.4958 42.9687 44.0687 42.7854 44.3437 42.2812L48.7437 34.6729C49.0187 34.1687 48.9042 33.5958 48.4687 33.275L43.8625 29.6542ZM27.5 35.75C22.9625 35.75 19.25 32.0375 19.25 27.5C19.25 22.9625 22.9625 19.25 27.5 19.25C32.0375 19.25 35.75 22.9625 35.75 27.5C35.75 32.0375 32.0375 35.75 27.5 35.75Z" fill="#D9D9D9"/>
</svg>
